<svg xmlns="http://www.w3.org/2000/svg" version="1.1" xmlns:xlink="http://www.w3.org/1999/xlink" width="1000" height="1000"><g clip-path="url(#SvgjsClipPath1003)"><rect width="1000" height="1000" fill="#101828"></rect><g transform="matrix(3.5,0,0,3.5,150,150)"><svg xmlns="http://www.w3.org/2000/svg" version="1.1" xmlns:xlink="http://www.w3.org/1999/xlink" width="200" height="200"><svg xmlns="http://www.w3.org/2000/svg" version="1.1" xmlns:xlink="http://www.w3.org/1999/xlink" viewBox="0 0 200 200"><rect width="200" height="200" fill="url('#gradient')"></rect><defs><linearGradient id="gradient" gradientTransform="rotate(0 0.5 0.5)"><stop offset="0%" stop-color="#101828"></stop><stop offset="100%" stop-color="#101828"></stop></linearGradient><clipPath id="SvgjsClipPath1003"><rect width="1000" height="1000" x="0" y="0" rx="350" ry="350"></rect></clipPath></defs><g><g fill="#ffffff" transform="matrix(4.569687074829932,0,0,4.569687074829932,16.396670830507674,132.48985057864547)" stroke="#ffffff" stroke-width="0"><path d="M12.24-14.22L12.24-11.57L7.97-11.57L7.97 0L4.54 0L4.54-11.57L0.35-11.57L0.35-14.22L12.24-14.22ZM21.47 0L18.96-5.02L17.11-5.02L17.11 0L13.68 0L13.68-14.22L19.28-14.22Q21.81-14.22 23.23-13.10Q24.66-11.97 24.66-9.92L24.66-9.92Q24.66-8.44 24.06-7.46Q23.46-6.48 22.18-5.88L22.18-5.88L25.15-0.15L25.15 0L21.47 0ZM17.11-11.57L17.11-7.67L19.28-7.67Q20.25-7.67 20.75-8.18Q21.24-8.69 21.24-9.61Q21.24-10.53 20.74-11.05Q20.24-11.57 19.28-11.57L19.28-11.57L17.11-11.57ZM35.68-8.30L35.68-5.66L30.16-5.66L30.16 0L26.73 0L26.73-14.22L36.24-14.22L36.24-11.57L30.16-11.57L30.16-8.30L35.68-8.30Z"></path></g></g></svg></svg></g></g></svg>